<?xml version="1.0" encoding="utf-8"?>
<!-- Generator: Adobe Illustrator 25.3.1, SVG Export Plug-In . SVG Version: 6.00 Build 0)  -->
<svg version="1.1" id="Layer_1" xmlns="http://www.w3.org/2000/svg" xmlns:xlink="http://www.w3.org/1999/xlink" x="0px" y="0px"
	 viewBox="0 0 808.12 261.85" style="enable-background:new 0 0 808.12 261.85;" xml:space="preserve">
<style type="text/css">
	.st0{fill:#FFFFFF;}
	.st1{fill:#1D1D1D;}
	.st2{fill:url(#SVGID_1_);}
	.st3{fill:url(#SVGID_2_);}
	.st4{fill:url(#SVGID_3_);}
	.st5{fill:url(#SVGID_4_);}
	.st6{fill:url(#SVGID_5_);}
	.st7{fill:url(#SVGID_6_);}
	.st8{fill:url(#SVGID_7_);}
	.st9{fill:url(#SVGID_8_);}
	.st10{fill:url(#SVGID_9_);}
	.st11{fill:url(#SVGID_10_);}
	.st12{fill:url(#SVGID_11_);}
	.st13{fill:url(#SVGID_12_);}
	.st14{fill:url(#SVGID_13_);}
	.st15{fill:url(#SVGID_14_);}
	.st16{fill:url(#SVGID_15_);}
	.st17{fill:url(#SVGID_16_);}
	.st18{fill:url(#SVGID_17_);}
	.st19{fill:url(#SVGID_18_);}
	.st20{fill:url(#SVGID_19_);}
	.st21{fill:url(#SVGID_20_);}
	.st22{fill:url(#SVGID_21_);}
	.st23{fill:url(#SVGID_22_);}
	.st24{fill:url(#SVGID_23_);}
	.st25{fill:url(#SVGID_24_);}
	.st26{fill:url(#SVGID_25_);}
	.st27{fill:url(#SVGID_26_);}
	.st28{fill:url(#SVGID_27_);}
	.st29{fill:url(#SVGID_28_);}
	.st30{fill:url(#SVGID_29_);}
	.st31{fill:url(#SVGID_30_);}
	.st32{fill:url(#SVGID_31_);}
	.st33{fill:url(#SVGID_32_);}
	.st34{fill:url(#SVGID_33_);}
	.st35{fill:url(#SVGID_34_);}
	.st36{fill:url(#SVGID_35_);}
	.st37{fill:url(#SVGID_36_);}
</style>
<linearGradient id="SVGID_1_" gradientUnits="userSpaceOnUse" x1="557.4404" y1="163.438" x2="751.8224" y2="161.063">
	<stop  offset="1.953168e-05" style="stop-color:#00A4D0"/>
	<stop  offset="1" style="stop-color:#0385BF"/>
</linearGradient>
<path class="st2" d="M748.6,185.11c-7.46,27.3-27.55,49.86-53.75,60.35c-8.75,3.52-18.02,5.63-27.55,6.26
	c-3.38,0.23-6.77,0.27-10.11,0.12c-0.65-0.03-1.31-0.05-1.96-0.11c-0.75-0.05-1.51-0.11-2.26-0.17c-1.15-0.11-2.29-0.23-3.42-0.37
	c-0.73-0.11-1.44-0.2-2.16-0.31c-1.3-0.2-2.58-0.44-3.86-0.69c-0.63-0.13-1.28-0.27-1.92-0.4c-1.92-0.41-3.81-0.9-5.69-1.46
	c-2.11-0.61-4.2-1.3-6.25-2.08c-0.69-0.27-1.38-0.53-2.05-0.8c-0.91-0.37-1.81-0.74-2.71-1.14c-3.6-1.57-7.09-3.4-10.46-5.45
	c-0.56-0.34-1.12-0.7-1.68-1.05c-1.11-0.72-2.21-1.45-3.29-2.2c-0.54-0.38-1.08-0.77-1.61-1.17c-1.61-1.18-3.19-2.41-4.72-3.7
	c-0.05-0.04-0.09-0.08-0.15-0.11c-0.46-0.4-0.93-0.8-1.38-1.19c-26.23-23-41.95-54.9-44.28-89.79
	c-1.55-23.19,2.95-45.84,12.85-66.15c-0.01,0.07-0.04,0.12-0.05,0.19c-0.04,0.11-0.08,0.21-0.11,0.32
	c-0.22,0.62-0.44,1.25-0.63,1.87c-0.21,0.62-0.41,1.26-0.59,1.9c-0.42,1.43-0.82,2.88-1.18,4.34c-0.15,0.56-0.28,1.1-0.4,1.66
	c-0.3,1.34-0.58,2.69-0.83,4.06c-0.12,0.68-0.24,1.37-0.34,2.04c-0.09,0.6-0.19,1.18-0.26,1.78c-0.2,1.47-0.37,2.95-0.5,4.43
	c-0.07,0.69-0.12,1.38-0.16,2.07c-0.05,0.7-0.09,1.39-0.12,2.1c-0.03,0.58-0.04,1.15-0.05,1.74c-0.08,2.91-0.03,5.84,0.17,8.77
	c0.53,7.95,2.05,15.71,4.52,23.15c0.57,1.71,1.19,3.41,1.86,5.09c0.33,0.84,0.67,1.67,1.03,2.49c0.71,1.66,1.48,3.29,2.29,4.9
	c0.4,0.81,0.82,1.61,1.24,2.39c2.55,4.72,5.51,9.19,8.82,13.39c1.11,1.39,2.25,2.75,3.42,4.09c0.6,0.66,1.19,1.31,1.8,1.96
	c0.61,0.64,1.23,1.27,1.85,1.91c10.21,10.26,22.77,18.12,36.69,22.7c1.43,0.48,2.87,0.92,4.32,1.31c1.98,0.54,3.99,1.02,6,1.45
	c1.51,0.31,3.03,0.57,4.55,0.81c1.52,0.24,3.05,0.42,4.59,0.58c3.08,0.31,6.17,0.46,9.29,0.46c2.08,0,4.15-0.07,6.24-0.21
	c9.77-0.65,19.25-2.81,28.17-6.41c1.22-0.49,2.42-0.99,3.61-1.54c1.19-0.53,2.37-1.1,3.53-1.68h0.01c1.18-0.58,2.33-1.21,3.48-1.86
	c0.57-0.32,1.14-0.64,1.71-0.97c1.69-1.01,3.36-2.06,4.98-3.14c1.1-0.74,2.17-1.5,3.23-2.28c0.7-0.52,1.4-1.05,2.09-1.59
	c1.38-1.09,2.72-2.2,4.05-3.36c1.31-1.15,2.59-2.35,3.85-3.58c0.62-0.61,1.24-1.23,1.84-1.87c0.62-0.64,1.22-1.29,1.81-1.94
	c0.4-0.42,0.77-0.85,1.2-1.34c0.37-0.44,0.74-0.86,1.08-1.3c13.08-16,15.22-37.66,7.1-55.52c1,1.43,1.97,2.89,2.88,4.39
	c0.25,0.38,0.49,0.8,0.73,1.19c0.28,0.45,0.54,0.9,0.79,1.35c2.14,3.72,4.01,7.58,5.58,11.54c2.84,7.14,4.76,14.61,5.72,22.3
	c0.22,1.78,0.4,3.56,0.52,5.35C752.29,165.2,751.28,175.34,748.6,185.11z"/>
<linearGradient id="SVGID_2_" gradientUnits="userSpaceOnUse" x1="566.9265" y1="97.7213" x2="732.7404" y2="97.7213">
	<stop  offset="1.953168e-05" style="stop-color:#07A7CE"/>
	<stop  offset="1" style="stop-color:#1795D2"/>
</linearGradient>
<path class="st3" d="M732.74,8.78c0,0.5-0.42,0.92-0.93,0.92c-0.12-0.03-0.24-0.04-0.36-0.07c-10.83-2.08-19.63-1.79-23.85-1.51
	c-6.7,0.45-16.96,1.92-28.15,6.39c-26.79,10.72-47.33,33.76-54.95,61.66c-2.74,9.99-3.78,20.35-3.08,30.81
	c0.65,9.78,2.79,19.28,6.37,28.24c5.14,12.97,13.35,24.84,23.73,34.29c0.42,0.4,0.86,0.8,1.31,1.19c0.44,0.38,0.9,0.77,1.34,1.11
	c15.94,13.12,37.53,15.28,55.32,7.12c-0.3,0.21-0.61,0.42-0.91,0.64c-0.54,0.37-1.08,0.74-1.63,1.09c-0.71,0.48-1.44,0.94-2.17,1.38
	c-0.78,0.49-1.57,0.97-2.38,1.42c-0.69,0.4-1.38,0.78-2.06,1.15c-1.47,0.8-2.95,1.54-4.46,2.26c-1.57,0.74-3.17,1.43-4.8,2.08
	c-1.1,0.44-2.21,0.86-3.32,1.25c-1.1,0.4-2.22,0.77-3.33,1.11c-1.12,0.36-2.25,0.69-3.4,1c-1.71,0.46-3.42,0.88-5.17,1.23
	c-1.73,0.36-3.48,0.66-5.24,0.92c-1.11,0.17-2.23,0.31-3.36,0.42c-0.7,0.09-1.4,0.16-2.1,0.21c-0.54,0.05-1.1,0.09-1.65,0.13
	c-0.34,0.03-0.67,0.04-1.02,0.05c-0.7,0.05-1.39,0.08-2.08,0.09c-0.99,0.04-1.97,0.05-2.96,0.05c-8.14,0.01-16.17-1.07-23.94-3.22
	c-15.31-4.21-29.11-12.43-40.14-23.51c-1.23-1.22-2.42-2.49-3.57-3.79c-0.58-0.65-1.15-1.3-1.71-1.98
	c-1.11-1.33-2.19-2.69-3.24-4.09c-1.04-1.39-2.05-2.83-3-4.29c-0.85-1.27-1.65-2.57-2.42-3.89c-0.78-1.31-1.53-2.65-2.23-4.02
	c-1.43-2.72-2.72-5.52-3.86-8.4c-0.11-0.27-0.21-0.54-0.32-0.82c-0.11-0.28-0.21-0.56-0.32-0.82c-0.62-1.66-1.2-3.33-1.72-5.03
	c-1.06-3.38-1.9-6.83-2.55-10.32c-0.49-2.63-0.86-5.28-1.11-7.96c-0.09-0.89-0.16-1.78-0.22-2.68c-0.03-0.37-0.04-0.74-0.05-1.11
	c-0.05-0.7-0.08-1.39-0.09-2.08c-0.04-0.97-0.05-1.94-0.05-2.89c-0.01-4.14,0.26-8.27,0.82-12.32c0.5-3.78,1.26-7.51,2.23-11.18
	c0.12-0.45,0.24-0.92,0.37-1.38c0.25-0.9,0.53-1.79,0.82-2.68c0.25-0.82,0.52-1.63,0.81-2.45c0.16-0.46,0.33-0.94,0.52-1.41
	c2.14-5.86,4.9-11.5,8.26-16.84c0.54-0.86,1.1-1.72,1.67-2.56c0.57-0.85,1.15-1.68,1.76-2.52c0.58-0.8,1.16-1.58,1.78-2.36
	c0.65-0.85,1.32-1.68,2.01-2.52c0.45-0.53,0.9-1.06,1.35-1.58c22.92-26.31,54.71-42.09,89.49-44.43c2.95-0.2,5.9-0.31,8.83-0.31
	c4.1,0,19.41,0.2,36.46,5.23c0,0,3.44,1.01,7.89,2.64c0.07,0.01,0.12,0.03,0.17,0.05C732.5,8.07,732.74,8.4,732.74,8.78z"/>
<linearGradient id="SVGID_3_" gradientUnits="userSpaceOnUse" x1="630.3203" y1="164.1027" x2="808.1178" y2="164.1027">
	<stop  offset="1.953168e-05" style="stop-color:#009EC9"/>
	<stop  offset="1" style="stop-color:#017EB7"/>
</linearGradient>
<path class="st4" d="M787.13,215.44c0,0,0,0.01-0.01,0.01c-0.24,0.29-0.49,0.6-0.74,0.89l-1.14,1.29c-0.32,0.36-0.63,0.73-0.98,1.1
	c-22.83,25.33-54.1,40.53-88.04,42.8c-22.99,1.55-45.53-2.93-65.76-12.84c-0.05-0.01-0.09-0.04-0.15-0.07
	c0.17,0.07,0.36,0.12,0.53,0.19c0.13,0.04,0.26,0.09,0.4,0.13c1.08,0.37,2.17,0.74,3.25,1.06c0.46,0.15,0.93,0.28,1.4,0.41
	c0.63,0.17,1.26,0.34,1.89,0.52c0.58,0.15,1.16,0.29,1.74,0.44c0.79,0.19,1.59,0.37,2.38,0.54c0.53,0.11,1.06,0.23,1.6,0.32
	c0.64,0.13,1.27,0.25,1.9,0.36c0.79,0.13,1.59,0.27,2.38,0.37c0.5,0.08,1,0.15,1.52,0.21c0.65,0.08,1.3,0.16,1.94,0.23
	c1.2,0.13,2.39,0.24,3.6,0.32c0.69,0.05,1.39,0.09,2.08,0.12c3.48,0.16,6.98,0.12,10.5-0.12c9.74-0.65,19.22-2.8,28.16-6.39
	c18.4-7.38,33.87-20.58,44.21-37.17c0.94-1.5,1.84-3.04,2.7-4.6c0.42-0.78,0.85-1.57,1.24-2.36c1.61-3.18,3.05-6.46,4.31-9.83
	c0.32-0.84,0.62-1.68,0.9-2.53c0.57-1.71,1.1-3.44,1.57-5.17c0.07-0.25,0.13-0.49,0.2-0.74c0.07-0.25,0.15-0.5,0.2-0.76
	c0.13-0.49,0.26-0.99,0.38-1.5c0.24-0.99,0.46-2,0.66-3.01c1.65-8.12,2.19-16.42,1.64-24.78c-0.33-5.03-1.07-9.99-2.18-14.85
	c-0.65-2.81-1.43-5.59-2.34-8.32c-0.57-1.71-1.18-3.41-1.85-5.09c-1.07-2.71-2.29-5.37-3.62-7.97c-0.66-1.29-1.35-2.56-2.08-3.82
	c-0.44-0.76-0.89-1.51-1.33-2.26c-1.38-2.24-2.84-4.43-4.4-6.55c-2.08-2.83-4.31-5.55-6.7-8.12c-1.78-1.94-3.65-3.78-5.59-5.56
	l-0.01-0.01c-0.42-0.4-0.85-0.78-1.28-1.17c-0.45-0.4-0.89-0.77-1.34-1.14c-13.45-11.02-31.16-14.51-47.34-10.04c0,0,0,0-0.01,0
	c-0.08,0.03-0.17,0.04-0.25,0.07c0,0-0.01,0.01-0.03,0.01h-0.08c-0.5,0-0.91-0.42-0.91-0.93c0-0.32,0.16-0.6,0.4-0.76
	c0.05-0.04,0.11-0.07,0.16-0.09c3.6-2.06,7.32-3.86,11.17-5.4c8.73-3.5,17.99-5.61,27.54-6.26c10.17-0.68,20.27,0.33,30.01,3.02
	c27.22,7.48,49.71,27.65,60.14,53.94c3.5,8.78,5.61,18.08,6.25,27.65C809.47,174.6,802.08,197.42,787.13,215.44z"/>
<path class="st1" d="M132.2,103.22c-0.42-2.99-1.07-5.91-1.96-8.71c-0.89-2.8-1.96-5.52-3.37-8.05c-1.41-2.54-2.88-4.96-4.86-7.15
	s-4.41-4.45-7.01-6.21c-2.59-1.76-5.55-3.28-8.81-4.53c-3.25-1.26-6.87-2.38-10.84-3.05c-3.88-0.63-3.74-0.63-8.59-1.08
	c0,0-0.6-0.05-1.13-0.09c-0.47-0.01-0.48-0.03-1.42-0.06c-0.89-0.02-1.29,0.01-2.53-0.02c-1.25-0.02-1.99,0.03-3.53,0
	c-1.54-0.02-0.7,0.03-2.47,0c-1.78-0.02-2.22,0-3.32,0c-1.28-0.03-0.79,0-1.76,0h-1.39c-1.14,0-0.4,0-0.99,0h-1.8
	c-0.44,0.01-0.48-0.02-2.26,0c-1.78,0.03-1.65,0-3.45,0c-1.54,0.03-2.94-0.02-4.19,0c-1.24,0.03-1.32-0.02-2.21,0
	c-0.89,0.02-1.79-0.01-2.26,0c-0.47,0.01-1.82,0.05-1.82,0.05c-4.76,0.07-8.76,0.55-12.72,1.22c-3.97,0.67-7.56,1.75-10.82,3
	c-3.25,1.26-6.36,2.88-8.95,4.64c-2.6,1.77-4.92,3.86-6.9,6.05c-1.97,2.19-3.66,4.67-5.07,7.21c-1.41,2.53-2.5,5.27-3.39,8.07
	c-0.89,2.8-1.51,5.72-1.94,8.71C0.02,106.21,0,109.27,0,112.36v37.17c0,3.09,0.19,6.15,0.62,9.14c0.42,2.99,1.07,5.91,1.96,8.71
	c0.89,2.8,2.03,5.49,3.44,8.02c1.41,2.54,3.09,4.92,5.07,7.11s4.25,4.18,6.85,5.95c2.59,1.76,5.5,3.29,8.75,4.54
	c3.26,1.26,6.85,2.24,10.82,2.9c3.96,0.67,8.3,1.02,13.02,1.02c0,0,0.25,0.01,0.72,0.02c0.47,0.01,1.16,0.03,2.04,0.05
	c0.88,0.02,1.95,0.04,3.18,0.06c1.1,0.03,2.32,0.01,3.65,0.04c0.94-0.01,1.88-0.02,2.8-0.02c-0.79,0-1.55,0.01-2.28,0.02h5.22
	c1.35-0.02,2.64-0.02,3.91-0.01c-1.32,0-2.62,0.01-3.91,0.01h5.54c1.68-0.03,3.28-0.02,4.76,0c1.55-0.03,2.94-0.02,4.19,0
	c1.25-0.03,2.36-0.02,3.22,0c0.89-0.02,1.62,0.01,2.09,0c0.48-0.02,0.77,0,0.77,0c0.35,0,0.69-0.01,1.04,0c0.36,0,0.67-0.01,1.02,0
	c0.35,0,0.72-0.02,1.06,0c0.34,0,0.66-0.01,1,0c0.34,0,0.68-0.01,1.01,0h0.98c0.33-0.01,0.66-0.02,1,0c0.26-0.02,0.53,0,0.8-0.02
	c0,0,0.01,0.01,0.02,0c0.01,0.01,0.01,0,0.01,0c0.03,0.01,0.05,0.01,0.08,0.01l-0.03-0.01c0.01,0.01,0.02,0,0.04,0v0.01
	c0.36,0.02,0.61,0.02,1.07,0.01c0.43-0.02,0.88-0.01,1.25,0h0.88c0.38-0.02,1.44-0.02,1.6-0.02c0.39,0,0.47,0.01,0.71,0.02
	c1.03,0.08,0.79,0.7,0.95,0.89c0,0.01-0.02,0.73-0.01,0.86c0.12,0.47,0,12.21,0.04,13.08v0.1c0,0.19-0.01,0.4-0.03,0.62v0.03
	c0,0.05,0,0.1-0.01,0.16c-0.01,0.19-0.03,0.35-0.05,0.5c-0.01,0.04-0.01,0.09-0.02,0.14v0.03c-0.01,0.05-0.02,0.09-0.02,0.14
	c0,0.02,0,0.04-0.01,0.06c0,0.01,0,0.03-0.01,0.05c0,0.01,0,0.01,0,0.01c-0.01,0.11-0.03,0.22-0.05,0.33v-0.04
	c-0.02,0.12-0.05,0.25-0.07,0.39c-0.02,0.15-0.05,0.3-0.08,0.45c-0.32,1.53-0.87,3.25-1.62,4.84c-1.52,2.6-1.36,2.36-3.12,4.3
	c-1.53,1.59-2.53,2.17-4.12,3.14c-1.71,0.74-3.24,1.58-5.06,2.03c-1.84,0.52-3.79,0.93-5.73,1.07c0,0-0.35-0.01-0.82,0h-1.04
	c0,0-1.72,0-6.05,0c-0.72-0.01-1.47-0.01-2.27,0h-5.11c-0.88-0.01-1.72,0-2.54,0h-0.93c-0.9-0.01-1.74,0-2.52,0
	c-0.32,0-0.48,0-0.43,0h-0.6c-0.72,0-1.36,0.01-1.91,0c-0.7-0.01-1.26,0-1.64,0c-0.39-0.01-0.59,0-0.59,0H16.47l-1.26,0.07
	l-1.45,0.27c-0.61,0.18-1.05,0.31-1.61,0.54c-0.5,0.22-1.1,0.56-1.6,0.87c-0.47,0.39-0.77,0.49-1.26,0.92
	c-0.42,0.41-1,1.02-1.44,1.49c-0.35,0.45-0.55,0.81-0.91,1.31c-0.35,0.5-0.59,1.12-0.82,1.55c-0.41,0.99-0.83,2.79-0.83,4.31
	c-0.01,0.62-0.01,2.68,0,3.1v4.84c0,0.71-0.01,0.85-0.01,0.85c0.01,0.03,0.01,0.08,0.01,0.15c0,2.8,1.42,6.07,3.21,7.91
	c2.73,2.5,5.87,3.38,7.97,3.37c1.51,0.01,2.53,0,3.04,0c2.1-0.01,6.91-0.02,9.5,0c2.54-0.05,5.38-0.01,8.58,0
	c2.43-0.01,5.08-0.01,7.94,0c0.13,0.01,0.26,0.01,0.4,0c0.94,0.01,2.01,0.01,2.63,0.01c-0.1,0-0.2,0-0.29-0.01
	c0.24,0,0.43,0,0.56,0.01c0.68-0.01,1.44-0.02,2.29-0.01c1.24,0.02,2.66-0.02,4.19,0c1.53,0.03,3.14-0.02,4.91,0
	c0.46,0.01,0.96,0,1.44,0c0.72-0.01,1.44-0.01,2.15-0.01c0.68,0,1.37,0,2.06,0.01c0.32,0.01,0.64,0.01,0.97,0.01
	c0.26-0.01,0.51-0.01,0.76-0.01c0.71-0.01,1.41-0.01,2.1,0h2.66c0.2,0.01,0.4,0.01,0.6,0c0.82-0.01,1.6-0.01,2.34,0h0.35
	c0.56,0.01,1.1,0.01,1.62,0h0.15c0.68-0.01,1.35-0.01,1.98,0h0.1c0.58,0.01,1.12,0.01,1.58,0c0.97-0.02,1.63,0.01,2.16,0
	c0.52-0.01,0.84,0,0.84,0c4.73-0.11,7.98-0.62,11.61-1.21c3.75-0.62,7.41-1.66,10.58-2.91c3.17-1.16,5.42-2.54,8.08-4.13
	c2.49-1.64,4.25-3.12,6.34-5.2c1.86-2.06,2.74-3,4.33-5.29c1.62-2.38,2.79-4.67,3.92-7.3c1-2.62,2.2-6,2.7-9.04
	c0.69-3.31,1.18-9.45,1.18-12.55V112.36C132.82,109.27,132.62,106.21,132.2,103.22z M46.3,261.82c0.43-0.01,0.97-0.02,1.62,0
	C47.37,261.82,46.83,261.81,46.3,261.82z M101.29,133.09c-0.01,0.81-0.03,2.02-0.06,3.45c-0.03,1.43-0.08,3.08-0.15,4.96
	c-0.07,1.88-0.17,3.93-0.3,6.08c-0.15,2.44-0.56,4.79-1.56,6.94c-1.01,2.15-2.45,4.09-4.35,5.74c-1.91,1.64-4.27,2.97-7.13,3.9
	c-2.85,0.93-6.17,1.35-10.02,1.35c0,0-0.83-0.02-2.23,0s-1.6-0.02-3.88,0c-2.28,0.03,0.35-0.02-2.3,0h-3.3
	c-2.65-0.02-0.74,0.03-3.02,0c-2.29-0.02-4.26,0.02-5.66,0c-1.4-0.02-2.23-0.03-2.23-0.03c-3.85,0-7.22-0.39-10.07-1.32
	c-2.86-0.93-5.23-2.26-7.13-3.9c-1.91-1.65-3.35-3.59-4.35-5.74c-1-2.15-1.36-4.5-1.51-6.94c-0.13-2.14-0.18-4.2-0.25-6.08
	c-0.08-1.88-0.12-3.53-0.16-4.96c-0.03-1.43-0.04-2.64-0.05-3.45c-0.01-0.8-0.01-1.25-0.01-1.25v-0.16c0,0,0-0.75,0.01-1.71
	c0.01-0.96,0.02-2.37,0.05-4.01c0.04-1.63,0.08-3.54,0.16-5.57c0.07-2.03,0.07-4.19,0.2-6.34c0.15-2.44,0.56-4.79,1.56-6.94
	c1-2.14,2.44-4.09,4.35-5.73c1.9-1.64,4.27-2.98,7.13-3.9c2.85-0.93,6.19-1.5,10.04-1.5c0,0,0.83-0.06,2.23-0.08
	c1.41-0.02,6.97-0.08,7.44-0.1c2.28-0.03,1.91,0.13,3.04,0.05c0.55,0,0.63,0,0.63,0h0.13l0.52-0.02h0.48c0.31,0,0.31,0,0.54,0
	c0.22,0,1.44,0.09,2.23,0.1c2.28,0.03,2.3,0,3.7,0.02s1.69,0.03,1.69,0.03c3.85,0,7.19,0.57,10.04,1.5c2.86,0.92,5.22,2.26,7.13,3.9
	c1.9,1.64,3.34,3.59,4.35,5.73c1,2.15,1.41,4.5,1.56,6.94c0.13,2.15,0.23,4.31,0.3,6.34c0.07,2.03,0.12,3.99,0.15,5.62
	c0.03,1.64,0.05,3.2,0.06,4.16c0.01,0.96,0.01,1.51,0.01,1.51l-0.01,0.04v0.12C101.29,131.84,101.3,132.29,101.29,133.09z
	 M62.45,261.82c-0.27,0-0.52,0-0.79,0C61.81,261.83,62.08,261.83,62.45,261.82z M70.49,261.83c-0.26,0-0.52-0.01-0.79-0.01
	c-0.46,0-0.92,0.01-1.38,0.01H70.49z M66.19,261.83c-0.78,0-1.57-0.01-2.38-0.02c-0.46,0.01-0.91,0.01-1.36,0.01
	C63.28,261.83,64.61,261.83,66.19,261.83z"/>
<path class="st1" d="M160,0h8.99c6.18,0,11.29,5.08,11.29,11.26v174.63c0.11,5.3-4.38,11.21-11.27,11.2h-8.99
	c-7.09-0.01-11.34-5.98-11.31-11.2V11.26c0-6.18,5.11-11.24,11.29-11.24V0z"/>
<path class="st1" d="M207.47,64.28h8.99c6.18,0,11.26,5.02,11.26,11.2l0.03,110.41c-0.01,6.03-5.01,11.17-11.28,11.2h-8.99
	c-7.65-0.13-11.46-6.63-11.27-11.2l-0.03-110.41C196.18,69.3,201.29,64.28,207.47,64.28L207.47,64.28z"/>
<path class="st1" d="M365.2,0.02V0h-8.98c-2.96,0-10.61,1.83-11.29,11.27v3.95c0,8.93,0,41.86,0,41.86c0,4.09-2.71,7.62-6.84,7.55
	c0,0-2.78-0.11-3.72-0.1c0,0-10.65-0.27-23.73-0.26c-15.61,0.02-16.43,0.06-16.43,0.06c-37.65,0.41-51.15,23.24-50.59,47.95v36.95
	c0,24.76,12.8,47.69,50.59,47.69c0,0.02,0.57,0.16,16.43,0.16c17.08,0,15.23-0.16,15.23-0.16c37.78,0,50.62-22.93,50.62-47.69V11.52
	C376.37,2.3,368.16-0.04,365.2,0.02z M345,131.37c0,0-0.04,7.38-0.52,15.97c-0.63,11.49-9.57,16.92-17.68,17.82
	c0,0-0.2,0.35-5.49,0.35h-2.15c-9.94,0-20.39,0-20.39,0c-15.3,0.05-22.89-7.93-23.18-18.17c-0.25-8.6-0.37-15.97-0.37-15.97v-0.17
	c0,0-0.1-8.83,0.42-17.42c0.59-9.77,7.73-17.87,23.13-17.87c0,0,6.8-0.05,11.27-0.11l11.26,0.16c15.4,0,22.59,8.1,23.18,17.87
	C345,122.42,345,131.2,345,131.2V131.37z"/>
<path class="st1" d="M472.53,64.27h-29.99c-34.84,1.09-47.84,19.05-50.13,42.43v42.67c0,26.14,13.75,47.2,50.13,47.71h66.34
	c5.62,0,11.13-4.85,11.04-11.26v-9.01c0.09-4.78-3.8-11.07-11.21-11.3h-64.1c-15.89-1.12-19.81-11.1-20.2-17.89l-0.13-2.49
	c0-1.65,0.88-1.29,2.58-1.3h86.53l1.2,0.01c7.06,0,10.63-6.07,10.63-12.29v-24.87C521.95,79.07,506.32,64.73,472.53,64.27z
	 M493.11,114.08c0,1.65-0.48,5.23-2.13,5.23h-64.89c-1.65,0-1.76-1.34-1.76-2.98l0.1-2.26l0.2-2.14
	c1.53-10.57,10.09-15.02,20.07-16.13h27.32c11.2,0.95,19.24,5.57,21.09,16.18l0.05,1.25L493.11,114.08z"/>
<g>
	<path class="st1" d="M164.88,217.17c-0.15-0.87-0.45-1.63-0.88-2.27c-0.43-0.64-1.08-1.14-1.95-1.5c-0.87-0.37-2.04-0.55-3.5-0.55
		h-9.97v22.79h2.85v-8.38h7.06c1.48,0,2.66-0.19,3.54-0.56c0.89-0.38,1.55-0.9,1.99-1.56c0.44-0.66,0.73-1.43,0.88-2.3
		c0.14-0.87,0.21-1.81,0.21-2.8C165.11,219,165.04,218.05,164.88,217.17z M162.13,222.19c-0.09,0.6-0.29,1.09-0.59,1.48
		c-0.31,0.38-0.78,0.66-1.41,0.84c-0.63,0.18-1.49,0.27-2.57,0.27h-6.13v-9.48h6.2c1.08,0,1.93,0.09,2.56,0.28
		c0.63,0.19,1.1,0.47,1.39,0.85c0.3,0.37,0.49,0.86,0.57,1.45c0.08,0.6,0.11,1.32,0.11,2.16
		C162.26,220.88,162.22,221.6,162.13,222.19z"/>
	<path class="st1" d="M184.43,212.85v13.95c0,1.39-0.05,2.51-0.13,3.38c-0.09,0.86-0.32,1.53-0.68,2.02
		c-0.37,0.48-0.94,0.81-1.73,0.99c-0.78,0.18-1.87,0.27-3.26,0.27s-2.48-0.09-3.28-0.27c-0.79-0.18-1.37-0.51-1.74-0.99
		c-0.36-0.49-0.6-1.16-0.71-2.02c-0.11-0.87-0.17-1.99-0.17-3.38v-13.95h-2.85v12.82c0,1.66,0.06,3.07,0.17,4.24
		s0.33,2.15,0.66,2.93c0.33,0.79,0.82,1.4,1.46,1.84c0.64,0.44,1.48,0.76,2.53,0.95c1.05,0.18,2.36,0.28,3.93,0.28
		c1.55,0,2.84-0.1,3.89-0.28c1.05-0.19,1.9-0.51,2.54-0.95c0.64-0.44,1.12-1.05,1.44-1.84c0.32-0.78,0.53-1.76,0.63-2.93
		s0.15-2.58,0.15-4.24v-12.82H184.43z"/>
	<path class="st1" d="M210.2,227.1c-0.22-0.78-0.63-1.42-1.22-1.94c-0.6-0.52-1.46-0.88-2.59-1.08v-0.13c0.93-0.2,1.68-0.53,2.24-1
		c0.56-0.46,0.98-1.06,1.24-1.8c0.27-0.74,0.4-1.6,0.4-2.57c0-1.19-0.19-2.21-0.56-3.06c-0.38-0.85-1.01-1.51-1.89-1.98
		c-0.89-0.46-2.08-0.69-3.58-0.69h-10.6v22.79h10.47c1.32,0,2.4-0.16,3.24-0.48c0.84-0.32,1.49-0.75,1.94-1.31
		c0.45-0.55,0.78-1.19,0.96-1.92c0.19-0.73,0.28-1.49,0.28-2.28C210.53,228.72,210.42,227.87,210.2,227.1z M196.49,215.3h6.82
		c1.08,0,1.92,0.13,2.52,0.38c0.6,0.26,1.01,0.66,1.24,1.21s0.35,1.29,0.35,2.22c0,0.84-0.15,1.54-0.45,2.1
		c-0.3,0.57-0.75,0.98-1.36,1.25c-0.6,0.26-1.37,0.39-2.3,0.39h-6.82V215.3z M207.3,231.55c-0.25,0.59-0.69,1.01-1.3,1.26
		c-0.62,0.25-1.47,0.38-2.56,0.38h-6.95v-7.85h6.95c1.04,0,1.87,0.13,2.49,0.38s1.06,0.67,1.34,1.26c0.28,0.58,0.42,1.35,0.42,2.3
		C207.69,230.21,207.56,230.97,207.3,231.55z"/>
	<path class="st1" d="M219.08,233.13v-20.28h-2.85v22.79h13.49v-2.51H219.08z"/>
	<path class="st1" d="M234.06,212.85v22.79h2.85v-22.79H234.06z"/>
	<path class="st1" d="M258.76,227.64c-0.04-0.45-0.09-0.86-0.15-1.24c-0.07-0.38-0.17-0.72-0.3-1.03c-0.22-0.62-0.55-1.09-1-1.42
		c-0.44-0.33-0.96-0.57-1.57-0.71c-0.61-0.15-1.31-0.25-2.1-0.32l-5.54-0.63c-0.81-0.09-1.43-0.23-1.83-0.41
		c-0.41-0.19-0.68-0.52-0.8-1c-0.12-0.47-0.18-1.14-0.18-2c0-0.73,0.06-1.35,0.18-1.87s0.43-0.93,0.91-1.21
		c0.44-0.29,1.04-0.49,1.79-0.6s1.73-0.16,2.95-0.16c0.71,0,1.45,0.01,2.24,0.05c0.78,0.03,1.55,0.08,2.3,0.14
		c0.75,0.07,1.41,0.15,1.99,0.24v-2.36c-0.51-0.11-1.16-0.2-1.94-0.28c-0.79-0.07-1.62-0.14-2.5-0.18
		c-0.89-0.04-1.75-0.07-2.59-0.07c-1.3,0-2.46,0.08-3.46,0.22c-1.01,0.14-1.86,0.44-2.57,0.88c-0.7,0.44-1.24,1.08-1.6,1.92
		c-0.37,0.84-0.55,1.95-0.55,3.35c0,0.86,0.05,1.63,0.16,2.33c0.11,0.7,0.33,1.29,0.65,1.79c0.32,0.5,0.8,0.91,1.44,1.23
		c0.64,0.32,1.49,0.54,2.55,0.67l5.67,0.63c0.7,0.07,1.27,0.16,1.69,0.29c0.42,0.12,0.72,0.31,0.91,0.56s0.3,0.61,0.35,1.08
		c0.04,0.46,0.06,1.07,0.06,1.82c0,0.51-0.01,0.98-0.05,1.42c-0.03,0.44-0.12,0.83-0.28,1.16c-0.15,0.33-0.4,0.6-0.73,0.8
		c-0.48,0.28-1.08,0.48-1.79,0.58c-0.7,0.1-1.64,0.15-2.81,0.15c-0.58,0-1.28-0.03-2.11-0.07c-0.82-0.04-1.67-0.1-2.55-0.17
		c-0.87-0.06-1.7-0.13-2.5-0.19v2.41c0.75,0.09,1.59,0.17,2.5,0.24c0.92,0.06,1.86,0.12,2.84,0.16c0.97,0.05,1.86,0.07,2.68,0.07
		c0.9,0,1.75-0.04,2.53-0.1c0.79-0.07,1.5-0.22,2.14-0.47c0.64-0.24,1.18-0.6,1.62-1.09c0.45-0.48,0.79-1.14,1.03-1.97
		c0.24-0.83,0.37-1.87,0.37-3.13C258.81,228.6,258.79,228.09,258.76,227.64z"/>
	<path class="st1" d="M279.11,212.85v10.04h-11.92v-10.04h-2.85v22.79h2.85v-10.23h11.92v10.23h2.85v-22.79H279.11z"/>
	<path class="st1" d="M288.56,212.85v22.79h2.84v-22.79H288.56z"/>
	<path class="st1" d="M312.91,212.85v17.46h-0.14l-11.82-17.46h-2.92v22.79h2.75v-17.79h0.13l12,17.79h2.75v-22.79H312.91z"/>
	<path class="st1" d="M330.5,223.38v2.42h5.17v7.42c-0.36,0.05-0.8,0.09-1.33,0.14c-0.53,0.04-1.07,0.07-1.62,0.1
		c-0.55,0.02-1.06,0.03-1.53,0.03c-1.21,0-2.23-0.06-3.06-0.18s-1.49-0.37-1.99-0.75c-0.5-0.37-0.88-0.9-1.16-1.59
		c-0.27-0.68-0.46-1.57-0.54-2.67c-0.09-1.09-0.14-2.44-0.14-4.05c0-1.84,0.07-3.33,0.22-4.48c0.14-1.14,0.38-2.05,0.71-2.7
		c0.33-0.65,0.81-1.12,1.43-1.4c0.61-0.29,1.4-0.47,2.36-0.53c0.96-0.07,2.13-0.1,3.5-0.1c0.44,0,0.98,0.02,1.61,0.06
		c0.63,0.05,1.3,0.11,2.03,0.18c0.73,0.08,1.45,0.18,2.16,0.29v-2.32c-0.67-0.14-1.41-0.25-2.24-0.33
		c-0.83-0.09-1.67-0.17-2.53-0.24c-0.86-0.06-1.67-0.1-2.42-0.1c-1.59,0-2.95,0.1-4.06,0.29c-1.12,0.18-2.04,0.52-2.77,1.01
		c-0.73,0.48-1.3,1.16-1.72,2.03c-0.42,0.88-0.71,1.99-0.88,3.35c-0.16,1.36-0.25,3.02-0.25,4.99c0,1.96,0.09,3.62,0.25,4.98
		c0.17,1.36,0.45,2.48,0.86,3.35c0.41,0.87,0.98,1.55,1.69,2.04c0.72,0.48,1.64,0.82,2.77,1.01c1.13,0.18,2.5,0.28,4.11,0.28
		c0.68,0,1.45-0.03,2.3-0.09c0.85-0.05,1.71-0.13,2.58-0.23c0.88-0.1,1.68-0.21,2.41-0.34v-11.87H330.5z"/>
	<path class="st1" d="M368.73,217.17c-0.15-0.87-0.45-1.63-0.88-2.27c-0.43-0.64-1.08-1.14-1.95-1.5c-0.88-0.37-2.04-0.55-3.5-0.55
		h-9.97v22.79h2.85v-8.38h7.06c1.48,0,2.66-0.19,3.54-0.56c0.88-0.38,1.55-0.9,1.99-1.56s0.73-1.43,0.88-2.3
		c0.14-0.87,0.21-1.81,0.21-2.8C368.96,219,368.88,218.05,368.73,217.17z M365.98,222.19c-0.09,0.6-0.29,1.09-0.6,1.48
		c-0.31,0.38-0.77,0.66-1.4,0.84c-0.63,0.18-1.49,0.27-2.57,0.27h-6.13v-9.48h6.19c1.09,0,1.94,0.09,2.57,0.28
		c0.63,0.19,1.1,0.47,1.39,0.85c0.3,0.37,0.49,0.86,0.57,1.45c0.07,0.6,0.11,1.32,0.11,2.16
		C366.11,220.88,366.07,221.6,365.98,222.19z"/>
	<path class="st1" d="M376.88,233.13v-20.28h-2.85v22.79h13.49v-2.51H376.88z"/>
	<path class="st1" d="M401.66,212.85h-3.58l-8.61,22.79h2.88l2.35-6.23h10.24l2.35,6.23h2.95L401.66,212.85z M395.57,226.93
		l4.17-11.17h0.17l4.17,11.17H395.57z"/>
	<path class="st1" d="M409.88,212.85v2.52h7.19v20.27h2.85v-20.27h7.22v-2.52H409.88z"/>
	<path class="st1" d="M445.59,215.3v-2.45h-14.14v22.79h2.85v-9.77h10.07v-2.45H434.3v-8.12H445.59z"/>
	<path class="st1" d="M467.92,219.26c-0.09-1.36-0.29-2.47-0.59-3.35c-0.31-0.87-0.81-1.55-1.48-2.03
		c-0.67-0.49-1.59-0.83-2.75-1.01c-1.16-0.19-2.62-0.29-4.39-0.29s-3.23,0.1-4.39,0.29c-1.16,0.18-2.07,0.52-2.75,1.01
		c-0.67,0.48-1.16,1.16-1.47,2.03c-0.31,0.88-0.51,1.99-0.6,3.35c-0.09,1.36-0.13,3.02-0.13,4.99c0,1.96,0.04,3.62,0.13,4.98
		c0.09,1.36,0.29,2.48,0.6,3.35s0.8,1.55,1.47,2.04c0.68,0.48,1.59,0.82,2.75,1.01c1.16,0.18,2.62,0.28,4.39,0.28
		s3.23-0.1,4.39-0.28c1.16-0.19,2.08-0.53,2.75-1.01c0.67-0.49,1.17-1.17,1.48-2.04c0.3-0.87,0.5-1.99,0.59-3.35
		c0.09-1.36,0.13-3.02,0.13-4.98C468.05,222.28,468.01,220.62,467.92,219.26z M465.12,228.69c-0.05,1.14-0.2,2.04-0.44,2.7
		c-0.25,0.65-0.6,1.12-1.06,1.4c-0.47,0.29-1.1,0.47-1.89,0.55c-0.8,0.08-1.8,0.12-3.02,0.12c-1.21,0-2.21-0.04-3-0.12
		c-0.78-0.08-1.41-0.26-1.88-0.55c-0.48-0.28-0.83-0.75-1.07-1.4c-0.23-0.66-0.38-1.56-0.44-2.7c-0.07-1.15-0.1-2.63-0.1-4.44
		s0.03-3.29,0.1-4.44c0.06-1.15,0.21-2.05,0.44-2.7c0.24-0.65,0.59-1.12,1.07-1.41c0.47-0.29,1.1-0.47,1.88-0.55
		c0.79-0.08,1.79-0.11,3-0.11c1.22,0,2.22,0.03,3.02,0.11c0.79,0.08,1.42,0.26,1.89,0.55c0.46,0.29,0.81,0.76,1.06,1.41
		c0.24,0.65,0.39,1.55,0.44,2.7c0.06,1.15,0.09,2.63,0.09,4.44S465.18,227.54,465.12,228.69z"/>
	<path class="st1" d="M487.2,226.17c1.06-0.33,1.84-0.85,2.34-1.56c0.5-0.71,0.82-1.5,0.96-2.37c0.14-0.87,0.22-1.72,0.22-2.53
		c0-0.95-0.07-1.85-0.2-2.69c-0.14-0.84-0.41-1.57-0.81-2.2c-0.41-0.63-1.04-1.11-1.89-1.46c-0.85-0.34-2-0.51-3.43-0.51h-10.47
		v22.79h2.85v-9.04h6.79c0.35,0,0.64-0.01,0.86-0.04l3.58,9.08h3.05L487.2,226.17z M485.76,223.85c-0.63,0.18-1.49,0.26-2.6,0.26
		h-6.39v-8.81h6.62c1.06,0,1.9,0.09,2.51,0.28c0.6,0.19,1.04,0.47,1.32,0.83s0.45,0.82,0.53,1.36c0.08,0.54,0.12,1.19,0.12,1.94
		s-0.05,1.39-0.14,1.94c-0.08,0.54-0.28,0.99-0.58,1.37C486.86,223.4,486.39,223.67,485.76,223.85z"/>
	<path class="st1" d="M516.03,212.85L508.27,231h-0.16l-7.79-18.15h-3.84v22.79h2.68v-18.22h0.14l7.78,18.22h2.09l7.79-18.22h0.13
		v18.22h2.78v-22.79H516.03z"/>
</g>
</svg>
