<?xml version="1.0" encoding="UTF-8"?>
<!DOCTYPE svg PUBLIC "-//W3C//DTD SVG 1.1//EN" "http://www.w3.org/Graphics/SVG/1.1/DTD/svg11.dtd">
<svg version="1.1" xmlns="http://www.w3.org/2000/svg" xmlns:xlink="http://www.w3.org/1999/xlink" x="0" y="0" width="500" height="500" viewBox="0, 0, 500, 500">
  <g id="Layer_1">
    <g>
      <path d="M271.231,116.197 C290.437,116.197 307.078,126.64 316.269,142.03 L370.407,142.091 L370.407,113.022 C370.407,102.243 361.643,93.48 350.834,93.48 L148.97,93.48 C138.191,93.48 129.459,102.243 129.459,113.022 L129.52,141.846 L226.192,141.908 C235.444,126.579 252.024,116.197 271.231,116.197" fill="#CBCBCB"/>
      <path d="M180.085,84.258 L162.131,84.258 L160.054,90.732 L181.581,90.732 z" fill="#CBCBCB"/>
      <path d="M342.01,80.808 L318.101,80.808 L313.857,90.793 L345.888,90.793 z" fill="#CBCBCB"/>
      <path d="M278.803,73.388 L220.726,73.388 L208.757,90.915 L289.796,90.915 L278.803,73.388 z M259.933,87.342 L239.322,87.342 L239.322,77.388 L259.933,77.388 L259.933,87.342 z" fill="#CBCBCB"/>
      <path d="M319.048,147.221 C322.04,153.816 323.811,161.083 323.811,168.809 C323.811,197.847 300.269,221.42 271.2,221.42 C242.131,221.42 218.589,197.877 218.589,168.809 C218.589,161.083 220.329,153.816 223.352,147.19 L129.428,147.19 L129.428,226.458 C129.428,237.237 138.13,246 148.94,246 L350.804,246 C361.613,246 370.376,237.237 370.376,226.458 L370.437,147.221 L319.048,147.221 z" fill="#CBCBCB"/>
      <path d="M299.903,151.526 C299.078,150.06 298.04,148.686 296.91,147.373 C290.773,139.984 281.582,135.159 271.2,135.159 C260.818,135.159 251.627,139.953 245.49,147.312 C244.36,148.656 243.353,150.03 242.436,151.526 C239.322,156.595 237.49,162.457 237.49,168.809 C237.49,187.374 252.574,202.458 271.2,202.458 C289.735,202.458 304.849,187.404 304.849,168.809 C304.849,162.457 303.017,156.595 299.903,151.526" fill="#CBCBCB"/>
    </g>
    <text transform="matrix(1, 0, 0, 1, 254, 349)">
      <tspan x="-173.727" y="-14.812" font-family="Sathu" font-size="72" fill="#DDDDDD">Image Not </tspan>
      <tspan x="-105.4" y="80.588" font-family="Sathu" font-size="72" fill="#DDDDDD">Found</tspan>
    </text>
  </g>
</svg>
