<svg id="Group_6296" data-name="Group 6296" xmlns="http://www.w3.org/2000/svg" xmlns:xlink="http://www.w3.org/1999/xlink" width="500" height="162.003" viewBox="0 0 500 162.003">
  <defs>
    <clipPath id="clip-path">
      <path id="Path_1832" data-name="Path 1832" d="M1431.446,114.445A80.527,80.527,0,0,0,1458.84,170c.278.246.564.492.85.739a.641.641,0,0,1,.09.066q1.423,1.194,2.921,2.29c.327.246.663.484,1,.722.671.468,1.35.919,2.037,1.362.344.213.7.436,1.039.648a53.342,53.342,0,0,0,6.47,3.374c.557.246,1.113.476,1.677.706.417.165.843.328,1.268.492,1.268.484,2.56.911,3.869,1.288,1.161.345,2.331.649,3.518.9l1.185.246c.794.156,1.587.3,2.389.427.442.066.884.123,1.333.188.7.091,1.407.165,2.119.23.467.041.933.074,1.4.107.4.033.81.05,1.211.066a56.835,56.835,0,0,0,6.257-.074,55.578,55.578,0,0,0,17.048-3.874,56.249,56.249,0,0,0,35.124-55.982c-.074-1.108-.181-2.208-.319-3.308a56.065,56.065,0,0,0-3.542-13.8,54.539,54.539,0,0,0-3.452-7.141q-.233-.419-.49-.837c-.147-.246-.295-.5-.45-.739-.564-.928-1.161-1.831-1.783-2.717a32.86,32.86,0,0,1-4.393,34.352c-.212.271-.442.534-.67.8-.271.3-.5.567-.745.829-.368.4-.735.8-1.12,1.2-.367.394-.753.78-1.137,1.158q-1.165,1.145-2.38,2.216c-.818.714-1.652,1.4-2.5,2.076-.426.337-.859.665-1.292.986-.655.484-1.317.952-2,1.411q-1.509,1.01-3.084,1.946c-.352.2-.7.4-1.055.6-.712.4-1.423.788-2.151,1.15h-.009c-.719.361-1.448.713-2.184,1.042s-1.481.648-2.233.952a56.6,56.6,0,0,1-17.432,3.965c-1.292.09-2.576.132-3.861.132q-2.895,0-5.75-.288c-.949-.1-1.9-.213-2.838-.361s-1.882-.312-2.814-.5c-1.243-.263-2.487-.559-3.713-.895q-1.35-.369-2.675-.813a57.37,57.37,0,0,1-22.7-14.044c-.385-.393-.769-.788-1.146-1.182s-.744-.8-1.112-1.215c-.728-.829-1.432-1.666-2.119-2.528a57.614,57.614,0,0,1-5.456-8.282c-.262-.484-.524-.977-.769-1.478q-.749-1.49-1.415-3.029c-.221-.509-.434-1.026-.638-1.544q-.625-1.563-1.154-3.152a57.537,57.537,0,0,1-2.8-14.323c-.122-1.814-.155-3.628-.105-5.426.008-.361.016-.714.032-1.075.017-.435.041-.862.073-1.3s.058-.854.1-1.281c.082-.919.188-1.831.311-2.742.049-.369.106-.731.164-1.1.066-.419.139-.846.213-1.264q.233-1.27.515-2.512c.073-.345.155-.682.245-1.026.221-.9.466-1.8.728-2.684.115-.394.238-.788.368-1.174s.254-.772.393-1.157a1.9,1.9,0,0,1,.066-.2c.008-.041.024-.074.033-.115a80.8,80.8,0,0,0-7.951,40.927" transform="translate(-1431.262 -73.518)" fill="none"/>
    </clipPath>
    <linearGradient id="linear-gradient" x1="-7.193" y1="18.824" x2="-7.188" y2="18.824" gradientUnits="objectBoundingBox">
      <stop offset="0" stop-color="#00a4d0"/>
      <stop offset="1" stop-color="#0385bf"/>
    </linearGradient>
    <clipPath id="clip-path-2">
      <path id="Path_1833" data-name="Path 1833" d="M1515.828,0q-2.724,0-5.464.189a80.083,80.083,0,0,0-55.37,27.489c-.278.32-.556.648-.834.977-.426.517-.843,1.035-1.244,1.56-.385.484-.744.968-1.1,1.461-.376.518-.736,1.035-1.088,1.56s-.695,1.051-1.031,1.584a54.885,54.885,0,0,0-5.112,10.416c-.115.288-.221.583-.319.871-.18.509-.344,1.01-.5,1.519-.18.55-.352,1.1-.507,1.658-.082.286-.156.574-.229.853a56.309,56.309,0,0,0-1.889,14.546c0,.591.007,1.19.033,1.79.008.426.023.854.056,1.288.009.23.017.46.033.69.041.558.082,1.108.14,1.658q.233,2.486.687,4.925a55.005,55.005,0,0,0,1.579,6.386c.319,1.051.679,2.084,1.064,3.111.065.165.13.337.2.509s.131.345.2.509a53.315,53.315,0,0,0,2.389,5.2c.433.846.9,1.675,1.383,2.488s.973,1.617,1.5,2.4c.589.9,1.211,1.789,1.857,2.651s1.317,1.707,2,2.528c.344.418.7.821,1.055,1.223.712.8,1.448,1.593,2.209,2.347a56.066,56.066,0,0,0,24.834,14.545,55.117,55.117,0,0,0,14.814,1.995c.613,0,1.219-.007,1.833-.033.425-.008.85-.025,1.283-.058.213-.008.418-.016.63-.033.343-.025.687-.049,1.022-.082.434-.032.868-.074,1.3-.131.695-.074,1.39-.157,2.078-.263q1.631-.234,3.239-.567c1.08-.222,2.143-.476,3.2-.763.712-.189,1.407-.394,2.1-.616s1.383-.443,2.061-.69,1.374-.5,2.053-.772c1.006-.4,2-.829,2.969-1.289.932-.443,1.849-.9,2.757-1.4q.637-.343,1.276-.713c.5-.279.989-.575,1.472-.879.45-.271.9-.558,1.342-.853.336-.213.671-.444,1.007-.674l.563-.394a32.533,32.533,0,0,1-34.225-4.407c-.27-.214-.556-.452-.826-.69s-.548-.493-.81-.739A57.428,57.428,0,0,1,1528.18,5.026a58.267,58.267,0,0,1,14.757.936c.074.017.147.025.221.041a.574.574,0,0,0,.573-.566.588.588,0,0,0-.352-.533.373.373,0,0,0-.106-.033c-2.757-1.01-4.883-1.634-4.883-1.634A82.827,82.827,0,0,0,1515.828,0Z" transform="translate(-1441.138 -0.003)" fill="none"/>
    </clipPath>
    <linearGradient id="linear-gradient-2" x1="-8.691" y1="17.788" x2="-8.685" y2="17.788" gradientUnits="objectBoundingBox">
      <stop offset="0" stop-color="#07a7ce"/>
      <stop offset="1" stop-color="#1795d2"/>
    </linearGradient>
    <clipPath id="clip-path-3">
      <path id="Path_1834" data-name="Path 1834" d="M1554.764,66.51a55.83,55.83,0,0,0-17.039,3.874,55.149,55.149,0,0,0-6.912,3.34.667.667,0,0,0-.1.058.559.559,0,0,0-.245.468.573.573,0,0,0,.564.575h.05a.028.028,0,0,0,.016-.008c.049-.017.107-.025.156-.041h.008a32.542,32.542,0,0,1,29.293,6.213c.278.23.548.46.826.707s.531.476.793.722l.009.008c1.2,1.1,2.356,2.241,3.46,3.44a56.608,56.608,0,0,1,4.147,5.023q1.448,1.969,2.724,4.055c.278.46.557.927.826,1.4.45.78.876,1.568,1.284,2.364.826,1.609,1.579,3.259,2.242,4.933.417,1.043.793,2.094,1.145,3.152q.847,2.537,1.448,5.147a58.334,58.334,0,0,1,1.351,9.186,57.632,57.632,0,0,1-1.015,15.333c-.123.624-.262,1.248-.41,1.863-.073.312-.155.625-.237.928-.033.156-.082.312-.123.468s-.082.3-.123.46c-.295,1.075-.622,2.143-.974,3.2-.171.525-.359,1.051-.556,1.568a59.58,59.58,0,0,1-2.667,6.083c-.246.492-.507.976-.769,1.461-.532.968-1.088,1.921-1.669,2.849a57.606,57.606,0,0,1-27.353,23,57.678,57.678,0,0,1-23.918,4.03c-.426-.016-.859-.041-1.285-.074-.744-.049-1.48-.114-2.225-.2-.4-.041-.8-.091-1.2-.14-.319-.041-.63-.082-.94-.131-.491-.066-.982-.148-1.473-.23q-.589-.1-1.178-.221c-.335-.058-.662-.131-.989-.2-.491-.106-.981-.221-1.473-.336l-1.08-.271c-.393-.106-.777-.213-1.17-.32-.294-.082-.58-.165-.867-.254-.671-.2-1.342-.428-2.012-.657-.082-.025-.163-.058-.246-.082-.106-.04-.22-.074-.327-.114a.426.426,0,0,0,.09.041,80.589,80.589,0,0,0,95.157-18.534c.212-.23.409-.459.6-.681l.7-.8c.155-.181.31-.369.458-.55a.008.008,0,0,0,.009-.008,56.3,56.3,0,0,0-28.221-90.227,55.409,55.409,0,0,0-14.785-2q-1.887,0-3.784.126" transform="translate(-1504.531 -66.384)" fill="none"/>
    </clipPath>
    <linearGradient id="linear-gradient-3" x1="-8.398" y1="17.339" x2="-8.392" y2="17.339" gradientUnits="objectBoundingBox">
      <stop offset="0" stop-color="#009ec9"/>
      <stop offset="1" stop-color="#017eb7"/>
    </linearGradient>
  </defs>
  <g id="Group_5342" data-name="Group 5342" transform="translate(344.659 45.486)">
    <g id="Group_5341" data-name="Group 5341" transform="translate(0 0)" clip-path="url(#clip-path)">
      <rect id="Rectangle_6473" data-name="Rectangle 6473" width="122.91" height="111.904" transform="matrix(1, -0.012, 0.012, 1, -2.122, 0.017)" fill="url(#linear-gradient)"/>
    </g>
  </g>
  <g id="Group_5344" data-name="Group 5344" transform="translate(350.77 0.001)">
    <g id="Group_5343" data-name="Group 5343" transform="translate(0 0)" clip-path="url(#clip-path-2)">
      <rect id="Rectangle_6474" data-name="Rectangle 6474" width="102.601" height="120.934" transform="translate(-0.008 0)" fill="url(#linear-gradient-2)"/>
    </g>
  </g>
  <g id="Group_5346" data-name="Group 5346" transform="translate(389.993 41.072)">
    <g id="Group_5345" data-name="Group 5345" transform="translate(0 0)" clip-path="url(#clip-path-3)">
      <rect id="Rectangle_6475" data-name="Rectangle 6475" width="110.846" height="121.7" transform="translate(0 0)" fill="url(#linear-gradient-3)"/>
    </g>
  </g>
  <path id="Path_1838" data-name="Path 1838" d="M912.852,186.5c-.166,0-.324,0-.489,0,.093.006.26.006.489,0m43.156-98.13a32.3,32.3,0,0,0-1.213-5.389A26.973,26.973,0,0,0,952.711,78a23.159,23.159,0,0,0-3.007-4.424,24.717,24.717,0,0,0-4.331-3.842,26.861,26.861,0,0,0-5.451-2.8,34.572,34.572,0,0,0-6.707-1.887,51.427,51.427,0,0,0-5.321-.668s-.371-.031-.693-.056c-.3-.006-.3-.019-.885-.037-.544-.012-.8.006-1.565-.012s-1.231.019-2.184,0-.427.019-1.528,0-1.373,0-2.048,0c-.792-.019-.495,0-1.1,0h-2.58c-.278.006-.3-.012-1.4,0s-1.021,0-2.128,0c-.953.019-1.825-.012-2.593,0s-.823-.012-1.374,0-1.1-.006-1.4,0-1.126.031-1.126.031a50.049,50.049,0,0,0-7.87.755,34.709,34.709,0,0,0-6.688,1.856,27.983,27.983,0,0,0-5.544,2.871,23.494,23.494,0,0,0-7.4,8.2,26.73,26.73,0,0,0-2.1,4.993,32.9,32.9,0,0,0-1.194,5.389,39.8,39.8,0,0,0-.278,5.655v23a40.693,40.693,0,0,0,.384,5.655,32.908,32.908,0,0,0,1.213,5.389,26.952,26.952,0,0,0,2.128,4.962,23.972,23.972,0,0,0,3.143,4.4,23.5,23.5,0,0,0,4.232,3.681,26.44,26.44,0,0,0,5.42,2.809,33.883,33.883,0,0,0,6.688,1.794,48.425,48.425,0,0,0,8.056.631s.155.006.445.012l1.262.031c.544.012,1.207.025,1.974.037.674.019,1.435.006,2.258.025.582-.006,1.163-.012,1.726-.012-.489,0-.959.006-1.411.012h3.23c.841-.012,1.64-.012,2.419-.006-.817,0-1.621.006-2.419.006h3.428c1.046-.019,2.036-.012,2.945,0,.959-.019,1.825-.012,2.592,0,.773-.019,1.466-.012,1.992,0,.551-.012,1,.006,1.293,0s.476,0,.476,0c.223,0,.433-.006.65,0s.415-.006.625,0,.445-.012.656,0,.415-.006.619,0,.421-.006.631,0h.6c.2-.006.408-.012.619,0,.161-.012.334,0,.495-.012a.012.012,0,0,0,.019,0,.154.154,0,0,0,.049.006l-.019-.006c.013.006.019,0,.025,0v.006c.223.012.371.012.662.006.272-.012.551-.006.78,0h.538c.235-.012.891-.012.99-.012.241,0,.291.006.439.012.637.049.489.433.588.551,0,.006-.006.452-.006.532.074.291.006,7.555.025,8.093v.062a4.844,4.844,0,0,1-.025.5.378.378,0,0,1-.006.08c.006.012,0,.019,0,.031-.012.111-.031.235-.043.359a.047.047,0,0,0-.006.031c.006-.006.006-.006.006-.012-.006.056-.019.118-.031.186a.67.67,0,0,0,.012-.105c-.012.074-.025.136-.031.186a.019.019,0,0,0,.006-.012.265.265,0,0,1-.006.031c-.006.019-.006.037-.012.056a.079.079,0,0,1-.006.037c.006.006.006.006,0,.012v.006l-.019.111a13.863,13.863,0,0,1-1.058,3.273,10.04,10.04,0,0,1-1.93,2.661,10.373,10.373,0,0,1-2.549,1.943,19.8,19.8,0,0,1-3.131,1.256,17.864,17.864,0,0,1-3.539.662s-.223-.006-.514,0H919.4c-.446-.006-.91-.006-1.4,0H912.7c-.557-.006-1.083,0-1.565,0H910.5c-.446,0-.841.006-1.182,0-.433-.006-.78,0-1.015,0s-.365,0-.365,0H884.4l-.78.043-.9.167a9.882,9.882,0,0,0-1,.334,8.637,8.637,0,0,0-.99.538c-.291.241-.476.3-.78.569-.26.254-.619.631-.885.922-.223.278-.347.5-.569.811a9.78,9.78,0,0,0-.507.959,8.069,8.069,0,0,0-.514,2.667v5.531a7.673,7.673,0,0,0,1.986,4.894A7.585,7.585,0,0,0,884.4,186.5c.934.006,1.566,0,1.881,0,1.3-.006,4.275-.012,5.878,0,1.572-.031,3.329-.006,5.309,0q2.255-.009,4.913,0a1.741,1.741,0,0,0,.254,0c.582.006,1.238.006,1.621.006a1.687,1.687,0,0,1-.179-.006c.148,0,.266,0,.346.006.421-.006.891-.012,1.423-.006.761.012,1.64-.012,2.586,0s1.943-.012,3.038,0c.288,0,.591,0,.891,0,.452-.006.9-.006,1.33-.006s.848,0,1.281.006c.2.006.4.006.594.006.161-.006.316-.006.47-.006.439-.006.879-.006,1.306,0h1.639q.186.009.371,0c.514-.006,1-.006,1.454,0h.216q.52.009,1,0h.093c.421-.006.829-.006,1.219,0h.062c.359.006.693.006.978,0,.606-.012,1.015.006,1.337,0s.52,0,.52,0a47.374,47.374,0,0,0,7.183-.749,32.685,32.685,0,0,0,6.546-1.8,27.682,27.682,0,0,0,5-2.555,23.436,23.436,0,0,0,3.923-3.217,26.631,26.631,0,0,0,2.679-3.273,25.4,25.4,0,0,0,2.426-4.517,30.706,30.706,0,0,0,1.677-5.593,49.925,49.925,0,0,0,.73-7.765v-63a39.758,39.758,0,0,0-.39-5.655M902.86,186.5c.266-.006.6-.012,1,0-.34,0-.674-.006-1,0m34.03-80.422s0,.278-.006.773-.012,1.25-.031,2.135-.05,1.906-.1,3.069-.105,2.432-.186,3.762a11.657,11.657,0,0,1-.965,4.294,10.528,10.528,0,0,1-2.691,3.551,12.7,12.7,0,0,1-4.405,2.413,20.061,20.061,0,0,1-6.206.835s-.514-.012-1.38,0-.99-.012-2.4,0,.217-.012-1.423,0h-2.042c-1.64-.012-.458.019-1.869,0s-2.636.012-3.5,0l-1.38-.019a20.259,20.259,0,0,1-6.23-.817,12.727,12.727,0,0,1-4.412-2.413,10.693,10.693,0,0,1-2.691-3.551,11.763,11.763,0,0,1-.934-4.294c-.08-1.324-.111-2.6-.155-3.762s-.074-2.184-.093-3.069-.031-1.633-.037-2.135-.006-.773-.006-.773v-.1s0-.464.006-1.058.019-1.466.037-2.481.05-2.19.093-3.446.043-2.592.124-3.923a11.793,11.793,0,0,1,.965-4.294,10.671,10.671,0,0,1,2.691-3.545,12.627,12.627,0,0,1,4.412-2.413,19.954,19.954,0,0,1,6.212-.928s.52-.037,1.386-.049,4.306-.049,4.6-.062c1.411-.019,1.182.08,1.881.031h.477l.316-.012h.637c.13,0,.891.056,1.374.062,1.411.019,1.423,0,2.289.012s1.046.019,1.046.019a20.024,20.024,0,0,1,6.218.928,12.6,12.6,0,0,1,4.405,2.413,10.506,10.506,0,0,1,2.691,3.545,11.657,11.657,0,0,1,.965,4.294c.081,1.33.143,2.667.186,3.923s.074,2.469.1,3.477.025,1.98.031,2.574.006.934.006.934Zm-19.063,80.428c-.161,0-.322-.006-.482-.006-.285,0-.569.006-.854.006Zm-2.66,0c-.483,0-.971-.006-1.473-.012-.284.006-.563.006-.841.006.514.006,1.337.006,2.314.006" transform="translate(-874.213 -24.503)" fill="#fff"/>
  <path id="Path_1839" data-name="Path 1839" d="M1029.909,0h5.56a7.013,7.013,0,0,1,6.984,6.968V115.017a6.978,6.978,0,0,1-6.97,6.928h-5.561a6.987,6.987,0,0,1-7-6.928V6.97a7,7,0,0,1,6.984-6.953Z" transform="translate(-930.913 -0.002)" fill="#fff"/>
  <path id="Path_1840" data-name="Path 1840" d="M1077.373,64.28h5.561a6.971,6.971,0,0,1,6.969,6.933l.016,68.311a7.015,7.015,0,0,1-6.98,6.928h-5.561a6.95,6.95,0,0,1-6.972-6.928l-.016-68.311a6.985,6.985,0,0,1,6.984-6.933" transform="translate(-949.01 -24.51)" fill="#fff"/>
  <path id="Path_1841" data-name="Path 1841" d="M1193.055.018V.006H1187.5a7.036,7.036,0,0,0-6.985,6.973V9.423c0,5.525.006,25.9.006,25.9,0,2.531-1.683,4.715-4.238,4.671,0,0-1.72-.068-2.3-.062,0,0-6.589-.167-14.682-.161-9.652.012-10.166.037-10.166.037-23.295.254-31.648,14.379-31.3,29.668V92.338c0,15.32,7.914,29.507,31.3,29.507,0,.012.347.1,10.166.1,10.568,0,9.423-.1,9.423-.1,23.382,0,31.32-14.187,31.32-29.507V7.134a7.061,7.061,0,0,0-6.986-7.115m-12.5,81.269s-.025,4.566-.316,9.881c-.4,7.109-5.927,10.469-10.945,11.026,0,0-.124.217-3.391.217h-13.952c-9.467.031-14.163-4.906-14.342-11.242-.155-5.321-.222-9.881-.222-9.881v-.105s-.068-5.463.254-10.778c.365-6.045,4.782-11.057,14.311-11.057,0,0,4.207-.031,6.973-.068l6.967.1c9.534,0,13.983,5.012,14.348,11.057.316,5.315.316,10.747.316,10.747Z" transform="translate(-967.097 -0.004)" fill="#fff"/>
  <path id="Path_1842" data-name="Path 1842" d="M1286.436,95.091l.123-1.327c.946-6.541,6.241-9.289,12.416-9.98h16.9c6.93.588,11.907,3.446,13.05,10.011l.031.775-.03.527c0,1.018-.3,3.233-1.318,3.233h-40.152c-1.018,0-1.085-.825-1.085-1.843Zm59.079,38.815a7.075,7.075,0,0,0-6.936-6.988h-39.657c-9.835-.694-12.258-6.869-12.5-11.073l-.08-1.538c0-1.018.54-.8,1.6-.8h54.279c4.367,0,6.574-3.749,6.574-7.6V90.518c-2.024-17.08-11.691-25.955-32.6-26.238h-18.556c-21.558.669-29.6,11.787-31.018,26.251v26.4c0,16.174,8.508,29.206,31.018,29.52h40.94a6.971,6.971,0,0,0,6.936-6.967Z" transform="translate(-1023.829 -24.51)" fill="#fff"/>
  <path id="Path_1843" data-name="Path 1843" d="M1032.878,215.529a3.584,3.584,0,0,0-.539-1.4,2.615,2.615,0,0,0-1.213-.928,5.633,5.633,0,0,0-2.159-.34h-6.175v14.1h1.763v-5.185h4.369a5.752,5.752,0,0,0,2.19-.346,2.7,2.7,0,0,0,1.231-.965,3.565,3.565,0,0,0,.545-1.423,10.951,10.951,0,0,0,.136-1.732,9.963,9.963,0,0,0-.148-1.776m-1.7,3.106a1.826,1.826,0,0,1-.366.916,1.681,1.681,0,0,1-.872.52,6.031,6.031,0,0,1-1.591.167h-3.793v-5.866h3.837a5.738,5.738,0,0,1,1.59.173,1.666,1.666,0,0,1,.86.526,1.779,1.779,0,0,1,.346.9,10.2,10.2,0,0,1,.074,1.336,9.055,9.055,0,0,1-.086,1.33" transform="translate(-930.863 -81.158)" fill="#fff"/>
  <path id="Path_1844" data-name="Path 1844" d="M1053.1,212.856v8.631c0,.86-.025,1.553-.081,2.091a2.526,2.526,0,0,1-.421,1.25,1.792,1.792,0,0,1-1.064.613,9.562,9.562,0,0,1-2.023.167,9.666,9.666,0,0,1-2.03-.167,1.807,1.807,0,0,1-1.076-.613,2.655,2.655,0,0,1-.439-1.25,17.393,17.393,0,0,1-.1-2.091v-8.631H1044.1v7.932c0,1.027.031,1.9.1,2.623a6.184,6.184,0,0,0,.408,1.813,2.567,2.567,0,0,0,.9,1.138,4.031,4.031,0,0,0,1.572.588,16.974,16.974,0,0,0,4.838,0,4.039,4.039,0,0,0,1.566-.588,2.463,2.463,0,0,0,.891-1.138,6.247,6.247,0,0,0,.39-1.813c.062-.724.093-1.6.093-2.623v-7.932Z" transform="translate(-938.988 -81.158)" fill="#fff"/>
  <path id="Path_1845" data-name="Path 1845" d="M1078.105,221.673a2.416,2.416,0,0,0-.761-1.2,3.283,3.283,0,0,0-1.6-.669v-.08a3.163,3.163,0,0,0,1.38-.619,2.428,2.428,0,0,0,.767-1.114,4.644,4.644,0,0,0,.248-1.59,4.718,4.718,0,0,0-.347-1.893,2.548,2.548,0,0,0-1.169-1.225,4.82,4.82,0,0,0-2.215-.428h-6.559v14.1h6.478a5.727,5.727,0,0,0,2.011-.3,2.786,2.786,0,0,0,1.2-.811,3.066,3.066,0,0,0,.594-1.187,5.876,5.876,0,0,0,.173-1.411,5.731,5.731,0,0,0-.2-1.578m-8.489-7.3h4.22a4.123,4.123,0,0,1,1.559.236,1.412,1.412,0,0,1,.773.748,3.642,3.642,0,0,1,.21,1.374,2.806,2.806,0,0,1-.272,1.3,1.708,1.708,0,0,1-.841.773,3.664,3.664,0,0,1-1.429.241h-4.22Zm6.695,10.054a1.434,1.434,0,0,1-.811.78,4.322,4.322,0,0,1-1.578.236h-4.306v-4.858h4.306a4.16,4.16,0,0,1,1.534.236,1.486,1.486,0,0,1,.829.78,3.3,3.3,0,0,1,.26,1.423,3.583,3.583,0,0,1-.235,1.4" transform="translate(-948.043 -81.158)" fill="#fff"/>
  <path id="Path_1846" data-name="Path 1846" d="M1092.21,225.4V212.857h-1.757v14.1h8.341V225.4Z" transform="translate(-956.66 -81.158)" fill="#fff"/>
  <rect id="Rectangle_6479" data-name="Rectangle 6479" width="1.763" height="14.101" transform="translate(144.818 131.698)" fill="#fff"/>
  <path id="Path_1847" data-name="Path 1847" d="M1126.75,221.9a6.645,6.645,0,0,0-.093-.767,3.066,3.066,0,0,0-.186-.637,1.819,1.819,0,0,0-.612-.879,2.574,2.574,0,0,0-.978-.439,8.622,8.622,0,0,0-1.3-.2l-3.421-.39a4.071,4.071,0,0,1-1.139-.254.876.876,0,0,1-.495-.619,5.3,5.3,0,0,1-.112-1.237,5.2,5.2,0,0,1,.112-1.157,1.144,1.144,0,0,1,.563-.749,2.772,2.772,0,0,1,1.107-.371,13.2,13.2,0,0,1,1.825-.1c.439,0,.9.006,1.386.031s.959.049,1.423.087.873.093,1.231.149v-1.46a11.493,11.493,0,0,0-1.2-.173c-.482-.043-1-.087-1.547-.111s-1.083-.043-1.6-.043a15.651,15.651,0,0,0-2.141.136,4,4,0,0,0-1.584.544,2.527,2.527,0,0,0-1,1.188,5.21,5.21,0,0,0-.34,2.073,9.261,9.261,0,0,0,.105,1.442,2.837,2.837,0,0,0,.4,1.108,2.18,2.18,0,0,0,.891.761,4.963,4.963,0,0,0,1.584.415l3.5.39a5.54,5.54,0,0,1,1.046.179,1.037,1.037,0,0,1,.563.347,1.332,1.332,0,0,1,.217.668c.025.285.043.662.043,1.126,0,.316-.012.606-.031.879a2.067,2.067,0,0,1-.18.718,1.1,1.1,0,0,1-.445.495,3.109,3.109,0,0,1-1.108.359,13.049,13.049,0,0,1-1.745.093c-.353,0-.792-.019-1.3-.043s-1.04-.062-1.578-.105-1.058-.08-1.553-.118v1.491c.464.056.984.105,1.553.149s1.151.074,1.751.1,1.151.043,1.658.043c.563,0,1.083-.025,1.572-.062a4.779,4.779,0,0,0,1.318-.291,2.57,2.57,0,0,0,1.009-.674,3.024,3.024,0,0,0,.631-1.219,6.828,6.828,0,0,0,.229-1.937c0-.34-.012-.656-.031-.934" transform="translate(-966.649 -81.055)" fill="#fff"/>
  <path id="Path_1848" data-name="Path 1848" d="M1147.7,212.856v6.212h-7.381v-6.212h-1.763v14.1h1.763v-6.33h7.381v6.33h1.763v-14.1Z" transform="translate(-974.999 -81.158)" fill="#fff"/>
  <rect id="Rectangle_6480" data-name="Rectangle 6480" width="1.763" height="14.101" transform="translate(178.539 131.698)" fill="#fff"/>
  <path id="Path_1849" data-name="Path 1849" d="M1181.449,212.856v10.8h-.081l-7.319-10.8h-1.807v14.1h1.7V215.95h.087l7.419,11.007h1.7v-14.1Z" transform="translate(-987.844 -81.158)" fill="#fff"/>
  <path id="Path_1850" data-name="Path 1850" d="M1201.266,219.269v1.5h3.2v4.591c-.217.031-.5.056-.823.085s-.662.045-1,.063-.656.019-.94.019a13.576,13.576,0,0,1-1.9-.111,2.62,2.62,0,0,1-1.231-.464,2.269,2.269,0,0,1-.718-.984,5.867,5.867,0,0,1-.334-1.652c-.056-.674-.081-1.511-.081-2.506a23.8,23.8,0,0,1,.13-2.772,5.18,5.18,0,0,1,.439-1.671,1.822,1.822,0,0,1,.885-.866,4.076,4.076,0,0,1,1.466-.329c.594-.043,1.312-.061,2.159-.061.272,0,.607.012,1,.037s.81.068,1.262.111.891.111,1.33.179V213a12.246,12.246,0,0,0-1.386-.2c-.507-.056-1.033-.105-1.565-.149s-1.033-.062-1.5-.062a15.239,15.239,0,0,0-2.512.179,4.222,4.222,0,0,0-1.708.624,3.053,3.053,0,0,0-1.07,1.257,6.632,6.632,0,0,0-.538,2.073,30.808,30.808,0,0,0,0,6.169,6.77,6.77,0,0,0,.532,2.073,3.019,3.019,0,0,0,1.046,1.262,4.326,4.326,0,0,0,1.708.624,16.314,16.314,0,0,0,2.543.174c.427,0,.9-.019,1.423-.056s1.058-.08,1.6-.142,1.033-.131,1.485-.21v-7.345Z" transform="translate(-996.778 -81.056)" fill="#fff"/>
  <path id="Path_1851" data-name="Path 1851" d="M1236.728,215.529a3.58,3.58,0,0,0-.539-1.4,2.646,2.646,0,0,0-1.213-.928,5.634,5.634,0,0,0-2.159-.34h-6.175v14.1h1.763v-5.185h4.368a5.75,5.75,0,0,0,2.19-.346,2.7,2.7,0,0,0,1.232-.965,3.564,3.564,0,0,0,.544-1.423,10.923,10.923,0,0,0,.136-1.732,9.918,9.918,0,0,0-.148-1.776m-1.7,3.106a1.884,1.884,0,0,1-.365.916,1.685,1.685,0,0,1-.872.52,6.027,6.027,0,0,1-1.59.167h-3.793v-5.866h3.836a5.736,5.736,0,0,1,1.59.173,1.692,1.692,0,0,1,.86.526,1.836,1.836,0,0,1,.346.9,10.337,10.337,0,0,1,.074,1.336,8.98,8.98,0,0,1-.086,1.33" transform="translate(-1008.586 -81.158)" fill="#fff"/>
  <path id="Path_1852" data-name="Path 1852" d="M1250.006,225.4V212.857h-1.763v14.1h8.346V225.4Z" transform="translate(-1016.822 -81.158)" fill="#fff"/>
  <path id="Path_1853" data-name="Path 1853" d="M1271.224,212.856h-2.209l-5.333,14.1h1.782l1.46-3.854h6.33l1.46,3.854h1.825Zm-3.768,8.712,2.58-6.911h.1l2.58,6.911Z" transform="translate(-1022.708 -81.158)" fill="#fff"/>
  <path id="Path_1854" data-name="Path 1854" d="M1284.093,212.856v1.559h4.449v12.542h1.763V214.415h4.467v-1.559Z" transform="translate(-1030.49 -81.158)" fill="#fff"/>
  <path id="Path_1855" data-name="Path 1855" d="M1314.417,214.372v-1.516h-8.755v14.1h1.763v-6.045h6.23V219.4h-6.23v-5.024Z" transform="translate(-1038.714 -81.158)" fill="#fff"/>
  <path id="Path_1856" data-name="Path 1856" d="M1335.06,216.719a7.668,7.668,0,0,0-.365-2.073,2.525,2.525,0,0,0-.915-1.256,3.878,3.878,0,0,0-1.7-.625,20.656,20.656,0,0,0-5.433,0,3.938,3.938,0,0,0-1.7.625,2.544,2.544,0,0,0-.909,1.256,7.849,7.849,0,0,0-.371,2.073c-.05.841-.08,1.869-.08,3.087s.03,2.24.08,3.081a7.8,7.8,0,0,0,.371,2.073,2.59,2.59,0,0,0,.909,1.262,4.1,4.1,0,0,0,1.7.625,21.388,21.388,0,0,0,5.433,0,4.039,4.039,0,0,0,1.7-.625,2.57,2.57,0,0,0,.915-1.262,7.622,7.622,0,0,0,.365-2.073c.056-.841.086-1.869.086-3.081s-.031-2.246-.086-3.087m-1.726,5.835a5.991,5.991,0,0,1-.279,1.671,1.666,1.666,0,0,1-.655.866,2.762,2.762,0,0,1-1.169.34c-.5.049-1.115.074-1.869.074s-1.367-.025-1.85-.074a2.756,2.756,0,0,1-1.169-.34,1.554,1.554,0,0,1-.656-.866,6.453,6.453,0,0,1-.278-1.671q-.064-1.067-.062-2.747t.062-2.747a6.356,6.356,0,0,1,.278-1.671,1.592,1.592,0,0,1,.656-.872,2.755,2.755,0,0,1,1.169-.34c.483-.049,1.1-.068,1.85-.068s1.374.019,1.869.068a2.762,2.762,0,0,1,1.169.34,1.709,1.709,0,0,1,.655.872,5.907,5.907,0,0,1,.279,1.671c.03.712.049,1.627.049,2.747s-.019,2.036-.049,2.747" transform="translate(-1045.547 -81.055)" fill="#fff"/>
  <path id="Path_1857" data-name="Path 1857" d="M1356.356,221.1a2.623,2.623,0,0,0,1.441-.965,3.472,3.472,0,0,0,.594-1.466,9.263,9.263,0,0,0,.136-1.565,10.912,10.912,0,0,0-.124-1.664,3.414,3.414,0,0,0-.5-1.361,2.447,2.447,0,0,0-1.169-.9,5.834,5.834,0,0,0-2.122-.316h-6.478v14.1h1.763v-5.593h4.2a4.082,4.082,0,0,0,.532-.025l2.215,5.618h1.887Zm-.891-1.435a6.178,6.178,0,0,1-1.615.161H1349.9v-5.451h4.1a5.4,5.4,0,0,1,1.547.173,1.569,1.569,0,0,1,.817.514,1.713,1.713,0,0,1,.328.841,9.347,9.347,0,0,1-.006,2.4,1.811,1.811,0,0,1-.359.848,1.639,1.639,0,0,1-.86.514" transform="translate(-1054.908 -81.158)" fill="#fff"/>
  <path id="Path_1858" data-name="Path 1858" d="M1382.789,212.856l-4.795,11.23h-.105l-4.814-11.23h-2.382v14.1h1.665V215.684h.08l4.82,11.273h1.287l4.82-11.273h.08v11.273h1.72v-14.1Z" transform="translate(-1063.509 -81.158)" fill="#fff"/>
</svg>
